<svg id="Group_535" data-name="Group 535" xmlns="http://www.w3.org/2000/svg" xmlns:xlink="http://www.w3.org/1999/xlink" width="331.471" height="64.133" viewBox="0 0 331.471 64.133">
  <defs>
    <clipPath id="clip-path">
      <path id="Path_2758" data-name="Path 2758" d="M0,0H331.471V64.133H0Z"/>
    </clipPath>
  </defs>
  <g id="Mask_Group_1" data-name="Mask Group 1" clip-path="url(#clip-path)">
    <path id="Path_2750" data-name="Path 2750" d="M1936.975,40.706a5.579,5.579,0,1,0,5.679,5.544,5.607,5.607,0,0,0-5.679-5.544m.034,9.973a4.433,4.433,0,1,1,4.225-4.395,4.245,4.245,0,0,1-4.225,4.395" transform="translate(-1611.183 -33.96)"/>
    <path id="Path_2751" data-name="Path 2751" d="M1956.125,60.2v-.067a1.421,1.421,0,0,0,1.15-1.285,1.536,1.536,0,0,0-.541-1.217,3.452,3.452,0,0,0-1.927-.406,11.2,11.2,0,0,0-2.13.169v5.544h1.285V60.71h.608c.71,0,1.048.271,1.15.879a4.755,4.755,0,0,0,.439,1.352h1.386a4.239,4.239,0,0,1-.406-1.386,1.637,1.637,0,0,0-1.014-1.352M1954.6,59.8H1954V58.208a3.083,3.083,0,0,1,.71-.067c.811,0,1.183.338,1.183.845,0,.575-.575.811-1.285.811" transform="translate(-1629.049 -47.743)"/>
    <rect id="Rectangle_3923" data-name="Rectangle 3923" width="13.762" height="62.964" transform="translate(62.638)"/>
    <path id="Path_2752" data-name="Path 2752" d="M529.967,118.634c-2.339-4.408-7.286-7.376-13.582-7.376-12.593,0-20.6,9.894-20.6,22.847,0,13.042,7.466,22.847,20.418,22.847,6.026,0,11.424-2.968,13.762-7.286v6.116h13.672V112.427H529.967Zm-9.8,26.894c-6.386,0-10.344-4.857-10.344-11.423s3.958-11.334,10.344-11.334c6.836,0,10.344,5.127,10.344,11.334,0,6.3-3.508,11.423-10.344,11.423" transform="translate(-413.618 -92.819)"/>
    <path id="Path_2753" data-name="Path 2753" d="M881.719,111.258c-6.386,0-11.513,3.328-13.852,8.005-1.889-4.587-5.847-8.005-13.583-8.005-6.026,0-10.524,3.148-12.412,7.466v-6.3H828.11v43.355h13.762V133.476c0-8.185,2.968-10.614,7.375-10.614,4.228,0,6.386,2.429,6.386,8.456v24.466h13.852V133.476c0-8.185,2.968-10.614,7.286-10.614,4.228,0,6.476,2.519,6.476,8.545v24.376H897.1V128.888c0-9.085-2.969-17.63-15.381-17.63" transform="translate(-690.863 -92.819)"/>
    <path id="Path_2754" data-name="Path 2754" d="M1296.942,111.258c-14.122,0-23.386,8.635-23.386,22.847,0,14.482,9.084,22.847,23.836,22.847,11.513,0,20.238-5.667,21.587-14.212h-13.492c-1.169,2.7-3.868,3.868-8.1,3.868-6.117,0-9.895-3.058-10.165-8.725h32.022a47,47,0,0,0,.36-6.026c0-12.233-9.175-20.6-22.667-20.6m-9.714,18.08c.09-5.307,3.688-8.815,9.625-8.815,5.846,0,9.085,3.058,9.175,8.815Z" transform="translate(-1062.483 -92.819)"/>
    <path id="Path_2755" data-name="Path 2755" d="M1615.082,78.844V64.452h9.8V53.568h-9.8V40.706H1601.32V53.568h-16.077V40.706h-13.762V53.568h-6.274V64.452h6.274v17.27c0,14.482,8.905,15.921,15.381,15.921a53.72,53.72,0,0,0,9.175-.72V85.95a38.912,38.912,0,0,1-4.767.27c-3.418,0-6.027-.99-6.027-7.376V64.452h16.077v17.27c0,14.482,8.905,15.921,15.381,15.921a53.719,53.719,0,0,0,9.175-.72V85.95a38.912,38.912,0,0,1-4.767.27c-3.418,0-6.027-.99-6.027-7.376" transform="translate(-1305.797 -33.96)"/>
    <rect id="Rectangle_3924" data-name="Rectangle 3924" width="56.307" height="5.622" transform="translate(0 57.342)"/>
  </g>
</svg>
