<?xml version="1.0" encoding="UTF-8"?> <svg xmlns="http://www.w3.org/2000/svg" fill="none" viewBox="0 0 146 32"><path fill="#003054" fill-rule="evenodd" d="M35.4717 10.335V4.7173h18.6427v5.6177h-5.7439v17.0634h-7.1549V10.335h-5.7439Zm48.6731 17.0614V4.75137h6.6378V15.5278l4.4934-4.7459h8.085l-6.3174 5.9965 6.6034 10.618h-7.5373l-3.6235-6.3171-1.7336 1.6675v4.6496h-6.6078ZM123.932 5.93783l.03 5.23087h-2.313v3.5915h2.174l.006 8.0527c0 .8325.001 2.3062 1.129 3.4311 1.313 1.3481 3.657 1.3809 4.361 1.3809 1.377 0 2.695-.1616 4.171-.3527v-4.5234c-.387.0641-.805.1282-1.187.1282-1.765 0-1.796-1.0909-1.796-1.7336l.054-6.3933 5.275-.002.03 8.0648v.0023c0 .8328 0 2.3049 1.119 3.4288 1.318 1.3481 3.658 1.3809 4.365 1.3809 1.379 0 2.693-.1617 4.17-.3528v-4.5234c-.387.0642-.801.1283-1.186.1283-1.766 0-1.798-1.091-1.798-1.7336l-.03-6.3833h2.986v-3.5914h-2.862l-.016-5.23092h-6.635l.012 5.23092h-5.39V5.93778h-6.669v.00005ZM102.82 19.027c0-5.4218 3.752-8.9205 9.145-8.9205 2.02 0 4.653.5138 6.672 2.4711 2.404 2.3725 2.47 5.0892 2.532 7.593l.003.107h-11.614v.0166c.031.7339.067 1.593.801 2.3263l.005.0046c.167.1647.779.767 1.983.767 1.509 0 2.343-.8024 3.015-2.1505l5.455 2.2768c-1.956 2.9847-4.844 4.5534-8.82 4.5534-6.16 0-9.177-4.4259-9.177-9.0448Zm-41.8052-8.7902c-1.7316 0-4.1046.159-5.9644 1.1223-2.3742 1.2493-2.7271 3.0156-2.9862 4.4252l6.1928-.1583c.2245-1.1557.6427-1.5392 2.1485-1.5392 1.8958 0 2.214.7683 2.2487 1.8919-.9967.2886-1.7036.4495-3.5314.7035-2.9206.3861-4.7132.6453-6.2229 2.1845-1.189 1.1865-1.4129 2.5661-1.4129 3.5614 0 2.8232 1.8305 5.3571 6.0004 5.3571 3.0853 0 4.6266-1.072 5.465-1.6552l.0204-.0142v1.2826h6.5156c-.4823-.6734-.5812-.9625-.5812-2.0502v-9.0496c0-1.9897 0-6.0618-7.8924-6.0618Zm15.873 1.9881c1.797-1.6046 3.0157-1.7957 5.5515-1.7957v5.5816c-.4502-.0334-.8984-.0642-1.3448-.0642-3.8779 0-3.9492 2.5259-3.9801 3.6195l-.0002.0061v7.8262h-6.5776V10.6837h6.3512v1.5412Zm35.2372 2.0863c.898 0 1.928.5131 2.213 1.6996.044.1733.058.3482.073.5221.006.0821.013.164.023.2455h-4.814l.006-.0289c.165-.7504.535-2.4383 2.499-2.4383Zm-49.5069 5.3627v-.0055c-.6413.2244-1.2839.4489-1.9561.6413-.0308.0072-.0617.0144-.0927.0216-.5176.1204-1.0622.247-1.6068.4273-1.2827.5144-1.3468 1.2842-1.3468 1.4791 0 .4489.3848 1.2807 1.6354 1.2807.9287 0 2.4719-.6087 3.0503-1.894.3167-.7032.3167-1.3745.3167-1.9505ZM.00001407 15.9795C.0115581 7.14318 7.18423-.0114789 16.0205.00001383l-.0103.02052267C24.8376.0384938 31.9884 7.1932 32 16.0205 31.9884 24.8568 24.8157 32.0114 15.9795 32 7.14318 31.9884-.0115812 24.8157.00001407 15.9795ZM11.0297 29.7809c1.5969.5798 3.2823.8746 4.9805.8735l.0103-.0102c6.2376.009 11.7967-3.9365 13.8438-9.8291 2.6539-7.6344-1.3827-15.97431-9.0171-18.62686 2.2382 1.81754 6.6955 5.92463 6.5826 12.38416-.1949 10.9681-16.4925 12.1186-15.9999 2.3421.1641-3.2554 4.6009-5.1563 4.9395.2668.1334 2.2178 6.5519-1.4686 2.6295-6.5724-3.9237-5.10368-14.61345-2.73203-15.21887 6.3159-.21164 2.7192.33221 5.4449 1.56998 7.8756 1.31345 2.2241 3.30287 3.9698 5.67969 4.9805Z" clip-rule="evenodd"></path></svg> 