<svg xmlns="http://www.w3.org/2000/svg" xmlns:xlink="http://www.w3.org/1999/xlink" viewBox="0 0 595.3 595.3"><circle cx="297.6" cy="291" fill="#fff" r="261.6"/><defs><path id="a" d="M167.3 309.5l27-15.1-10.2-24-16.8 39.1zm305.1-37c-5.1 5-7.9 11.9-7.7 19-.1 7 2.8 13.6 8 18.2 5.1 5 12.1 7.8 19.3 7.7 7.2.1 14.1-2.8 19.1-8.1 5.2-5 8-11.9 7.9-19.1.1-6.9-2.8-13.6-8-18.2-5.2-5-12.2-7.8-19.5-7.7h-.5c-7.1.1-13.8 3-18.6 8.2m-46.9 1.6l13.1-7.3v62.5h-13.1v-55.2zm-248-21.6h13.1l32.8 76.7h-14.2l-9.7-22.7-40.6 22.7h-14.2l32.8-76.7zm117.2 0H347v13.1h-39.2v18.7H347v13.1h-39.2v18.7H347v13.1h-52.3v-76.7zm65.4 0h13.1v63.6h39.2v13.1h-52.3v-76.7zm-95.1 62l.4-.4c2.2-2 3.4-4.9 3.3-7.8 0-2.5-1-5-2.9-6.7-2.3-1.9-5-3.2-7.9-3.7l-11.1-2.3c-4.4-1.2-8.3-3.8-10.9-7.5-2.6-3.7-4-8.2-3.9-12.7-.1-5.9 2.4-11.6 6.8-15.5 5.4-4.5 12.4-6.8 19.4-6.2 5.9-.1 11.6 2.3 15.7 6.6 4.2 4.2 6.5 9.9 6.4 15.8v3.1h-13.7v-3.1c.1-2.5-.8-4.8-2.5-6.7-4.4-4.5-11.5-4.5-15.9-.2l-.3.3c-1.8 1.6-2.9 3.8-2.8 6.2-.1 1.7.4 3.5 1.4 4.9 1.2 1.4 2.8 2.4 4.6 2.8l12.1 2.7c5.3 1.4 10 4.3 13.7 8.4 3.3 3.9 5 8.8 4.9 13.9.1 6.4-2.5 12.5-7.1 16.9-5.6 5-13 7.5-20.5 6.9-6.4.1-12.6-2.4-17.2-6.9-4.7-4.5-7.3-10.8-7.1-17.3v-4h13.2l.4 3.8c-.1 3.1 1 6 3.2 8.2 2.6 2.7 6 4 9.4 4 3.1.1 6.4-1.1 8.9-3.5m-189.6 4.7c-7.8-7.1-12.2-17.2-12.1-27.8-.1-10.6 4.1-20.8 11.6-28.3 7.4-7.7 17.6-12 28.2-11.8 10.6-.1 20.8 3.9 28.4 11.2 4.4 4 7.8 9 9.9 14.6H127c-1.2-1.9-2.6-3.6-4.3-5-5.2-5-12.2-7.8-19.5-7.7-7.2-.1-14.1 2.8-19 8-5.1 5-7.9 11.9-7.7 19-.1 7 2.8 13.6 8 18.2 5.1 5 12.1 7.8 19.3 7.7 7.2.1 14.1-2.8 19.1-8.1 2.1-2 3.9-4.4 5.2-7.1H142c-2 6.2-5.4 11.8-10 16.3-7.4 7.7-17.7 12-28.4 11.9h-.4c-10.4.2-20.4-3.8-27.8-11.1m388.3 0c-7.8-7.1-12.2-17.2-12.1-27.8-.1-10.6 4.1-20.8 11.6-28.3 7.4-7.7 17.6-12 28.2-11.8 10.6-.1 20.8 3.9 28.4 11.2 7.9 7.1 12.3 17.2 12.2 27.8.1 10.6-4.2 20.9-11.8 28.3-7.4 7.7-17.7 12-28.3 11.9h-.4c-10.4 0-20.4-4-27.8-11.3M69.4 163.1C-1.2 289.2 43.8 448.6 169.8 519.2c126.1 70.6 285.5 25.6 356.1-100.4 67.7-120.9 29.4-273.6-87.3-348.2v181.2l-13.1 7.3V62.7C385 40.1 341.2 29.3 297.9 29.3c-91.6 0-180.5 48.2-228.5 133.8"/></defs><clipPath id="b"><use xlink:href="#a" overflow="visible"/></clipPath><linearGradient id="c" gradientUnits="userSpaceOnUse" x1="1.067" y1="596.547" x2="2.067" y2="596.547" gradientTransform="matrix(523.2755 0 0 -523.2755 -522.275 312468.219)"><stop offset="0" stop-color="#40b38e"/><stop offset=".063" stop-color="#43b594"/><stop offset=".445" stop-color="#4fbbb4"/><stop offset="1" stop-color="#0099c1"/></linearGradient><path clip-path="url(#b)" fill="url(#c)" d="M-1.2 29.3h594.8v560.5H-1.2z"/></svg>